<svg width="21" height="18" fill="none" xmlns="http://www.w3.org/2000/svg"><path d="M3.5 0c.42 0 .78.288.86.686l.055.439h15.338c.74 0 1.33.712 1.123 1.43l-1.969 6.75a1.16 1.16 0 01-1.123.82H6.224l.335 1.688h11.233c.485 0 .875.376.875.843 0 .468-.39.844-.875.844H5.8a.862.862 0 01-.828-.685L2.776 1.688H.875C.392 1.688 0 1.31 0 .844 0 .378.392 0 .875 0H3.5zm1.167 16.313c0-.932.784-1.688 1.75-1.688s1.75.756 1.75 1.688c0 .931-.784 1.687-1.75 1.687s-1.75-.756-1.75-1.688zm14 0c0 .931-.784 1.687-1.75 1.687-.967 0-1.75-.756-1.75-1.688 0-.931.784-1.687 1.75-1.687s1.75.756 1.75 1.688z" fill="#565956"/></svg>